<svg width="189" height="149" viewBox="0 0 189 149" fill="none" xmlns="http://www.w3.org/2000/svg">
<path d="M143.076 0.485393L10.4471 0C7.81016 0.00498668 5.28147 1.04943 3.40959 2.90677C1.53771 4.76412 0.473579 7.28458 0.448032 9.92144L0.00147004 133.075C-0.0276868 134.445 0.377532 135.788 1.15903 136.913C1.94052 138.038 3.05815 138.887 4.35168 139.337C5.6452 139.788 7.04818 139.817 8.35945 139.422C9.67073 139.026 10.8229 138.225 11.6509 137.133L38.1728 103.661L142.688 104.049C145.325 104.044 147.853 103 149.725 101.142C151.597 99.2848 152.661 96.7644 152.687 94.1275L152.978 10.4651C152.978 7.83171 151.937 5.30503 150.083 3.43569C148.228 1.56636 145.709 0.505887 143.076 0.485393Z" fill="#79BB66"/>
<path d="M181.324 40.4236H159.967L159.792 98.1077C159.777 101.769 158.311 105.275 155.717 107.859C153.122 110.442 149.61 111.893 145.949 111.893L70.7515 111.621V112.475C70.7513 114.518 71.5562 116.479 72.9917 117.933C74.4273 119.387 76.3778 120.216 78.4207 120.242L159.21 120.494L179.693 146.55C180.335 147.368 181.216 147.967 182.213 148.262C183.21 148.557 184.275 148.534 185.259 148.197C186.243 147.86 187.097 147.225 187.704 146.38C188.31 145.535 188.639 144.522 188.644 143.482L188.993 48.1705C188.988 46.1308 188.181 44.1749 186.746 42.7254C185.311 41.2759 183.364 40.4491 181.324 40.4236Z" fill="#79BB66"/>
<path d="M94.0313 59.1209L106.419 48.9859C106.789 48.6683 107.056 48.2482 107.187 47.7786C107.319 47.309 107.308 46.811 107.156 46.3476C107.004 45.8842 106.719 45.4762 106.335 45.1751C105.952 44.874 105.487 44.6934 105.001 44.6562L89.0803 43.6271C88.6081 43.5993 88.1538 43.4363 87.7717 43.1574C87.3895 42.8786 87.0957 42.4957 86.9252 42.0544L81.1004 27.0849C80.9203 26.6157 80.6022 26.212 80.1879 25.9273C79.7737 25.6426 79.2829 25.4902 78.7803 25.4902C78.2776 25.4902 77.7868 25.6426 77.3726 25.9273C76.9584 26.212 76.6402 26.6157 76.4601 27.0849L70.6354 41.9574C70.4546 42.3938 70.1549 42.7708 69.7705 43.0454C69.3861 43.32 68.9323 43.4812 68.4608 43.5106L52.4234 44.3261C51.9239 44.3502 51.4433 44.5244 51.0444 44.8259C50.6455 45.1274 50.3469 45.5423 50.1875 46.0163C50.0281 46.4902 50.0154 47.0013 50.151 47.4826C50.2867 47.9639 50.5644 48.3931 50.9478 48.714L63.2768 58.8879C63.6282 59.1994 63.888 59.6008 64.0283 60.049C64.1686 60.4972 64.184 60.9751 64.0728 61.4314L59.9761 76.9639C59.8633 77.4479 59.8981 77.9545 60.0762 78.4185C60.2542 78.8824 60.5672 79.2823 60.9748 79.5666C61.3824 79.8509 61.8658 80.0064 62.3627 80.0132C62.8595 80.0199 63.347 79.8776 63.7622 79.6045L77.2367 71.0421C77.6262 70.7775 78.0861 70.6361 78.557 70.6361C79.0278 70.6361 79.4878 70.7775 79.8773 71.0421L93.3518 79.721C93.7695 79.9795 94.2545 80.1085 94.7454 80.0915C95.2364 80.0746 95.7113 79.9125 96.1102 79.6258C96.5091 79.3391 96.8141 78.9406 96.9866 78.4807C97.1592 78.0207 97.1915 77.5199 97.0796 77.0416L93.1965 61.509C93.1111 61.0727 93.1435 60.6215 93.2902 60.2018C93.4369 59.7821 93.6927 59.409 94.0313 59.1209Z" fill="white"/>
</svg>
