<svg width="184" height="25" viewBox="0 0 184 25" fill="none" xmlns="http://www.w3.org/2000/svg">
<path d="M-0.00568184 3.57919V0.818181H14.5007V3.57919H8.88104V19H5.61399V3.57919H-0.00568184ZM15.7392 19V5.36364H18.8553V7.63636H18.9973C19.2459 6.8492 19.6721 6.24254 20.2757 5.81641C20.8854 5.38435 21.5808 5.16832 22.362 5.16832C22.5396 5.16832 22.7379 5.1772 22.9569 5.19496C23.1818 5.20679 23.3682 5.22751 23.5162 5.2571V8.21342C23.38 8.16607 23.164 8.12464 22.8681 8.08913C22.5781 8.0477 22.2969 8.02699 22.0247 8.02699C21.4387 8.02699 20.912 8.15424 20.4444 8.40874C19.9828 8.65731 19.6188 9.00355 19.3525 9.44744C19.0861 9.89134 18.9529 10.4033 18.9529 10.9833V19H15.7392ZM29.3311 19.2752C28.467 19.2752 27.6887 19.1213 26.9963 18.8136C26.3097 18.4999 25.7652 18.0382 25.3627 17.4286C24.9662 16.819 24.7679 16.0674 24.7679 15.1737C24.7679 14.4042 24.91 13.768 25.1941 13.2649C25.4782 12.7618 25.8658 12.3594 26.3571 12.0575C26.8483 11.7557 27.4017 11.5278 28.0172 11.3739C28.6387 11.2141 29.2808 11.0987 29.9437 11.0277C30.7427 10.9448 31.3908 10.8709 31.888 10.8058C32.3851 10.7347 32.7462 10.6282 32.9711 10.4862C33.2019 10.3382 33.3173 10.1103 33.3173 9.80256V9.74929C33.3173 9.08049 33.119 8.56262 32.7225 8.19567C32.3259 7.82872 31.7548 7.64524 31.0091 7.64524C30.2219 7.64524 29.5975 7.81688 29.1358 8.16016C28.6801 8.50343 28.3723 8.90885 28.2125 9.37642L25.2118 8.95028C25.4486 8.12169 25.8392 7.42921 26.3837 6.87287C26.9282 6.31061 27.594 5.89039 28.3812 5.61222C29.1684 5.32812 30.0384 5.18608 30.9913 5.18608C31.6483 5.18608 32.3023 5.26302 32.9533 5.4169C33.6043 5.57079 34.1992 5.82528 34.7377 6.1804C35.2763 6.52959 35.7084 7.00604 36.0339 7.60973C36.3654 8.21342 36.5311 8.96804 36.5311 9.87358V19H33.4416V17.1268H33.335C33.1397 17.5056 32.8645 17.8607 32.5094 18.1921C32.1602 18.5176 31.7193 18.781 31.1866 18.9822C30.6599 19.1776 30.0414 19.2752 29.3311 19.2752ZM30.1657 16.9137C30.8108 16.9137 31.3701 16.7865 31.8436 16.532C32.3171 16.2715 32.681 15.9283 32.9355 15.5021C33.196 15.076 33.3262 14.6114 33.3262 14.1083V12.5014C33.2256 12.5843 33.0539 12.6612 32.8113 12.7322C32.5745 12.8033 32.3082 12.8654 32.0123 12.9187C31.7163 12.9719 31.4234 13.0193 31.1333 13.0607C30.8433 13.1022 30.5918 13.1377 30.3787 13.1673C29.8993 13.2324 29.4702 13.3389 29.0914 13.4869C28.7127 13.6348 28.4138 13.842 28.1948 14.1083C27.9758 14.3687 27.8663 14.7061 27.8663 15.1204C27.8663 15.7122 28.0823 16.1591 28.5144 16.4609C28.9464 16.7628 29.4969 16.9137 30.1657 16.9137ZM45.7108 19.2663C44.3495 19.2663 43.1806 18.9674 42.204 18.3697C41.2334 17.7719 40.4847 16.9463 39.9579 15.8928C39.4371 14.8333 39.1767 13.6141 39.1767 12.2351C39.1767 10.8501 39.443 9.62796 39.9757 8.56854C40.5083 7.5032 41.26 6.6746 42.2306 6.08274C43.2072 5.48497 44.3613 5.18608 45.693 5.18608C46.7998 5.18608 47.7793 5.39027 48.6316 5.79865C49.4898 6.20111 50.1734 6.77225 50.6824 7.51207C51.1913 8.24598 51.4814 9.10417 51.5524 10.0866H48.4806C48.3564 9.42969 48.0604 8.88222 47.5929 8.44425C47.1312 8.00035 46.5127 7.77841 45.7374 7.77841C45.0804 7.77841 44.5034 7.95597 44.0062 8.31108C43.5091 8.66027 43.1214 9.16335 42.8432 9.82031C42.571 10.4773 42.4348 11.2644 42.4348 12.1818C42.4348 13.111 42.571 13.91 42.8432 14.5788C43.1155 15.2417 43.4972 15.7537 43.9885 16.1147C44.4856 16.4698 45.0686 16.6474 45.7374 16.6474C46.2109 16.6474 46.6341 16.5586 47.0069 16.381C47.3857 16.1976 47.7024 15.9342 47.9569 15.5909C48.2114 15.2476 48.3859 14.8304 48.4806 14.3391H51.5524C51.4754 15.3039 51.1913 16.1591 50.7001 16.9048C50.2089 17.6446 49.5401 18.2247 48.6937 18.6449C47.8474 19.0592 46.853 19.2663 45.7108 19.2663ZM57.121 14.7209L57.1121 10.8413H57.627L62.5276 5.36364H66.2829L60.2549 12.0753H59.589L57.121 14.7209ZM54.1913 19V0.818181H57.4051V19H54.1913ZM62.7496 19L58.3106 12.7944L60.4768 10.5305L66.5937 19H62.7496ZM85.6855 24.1136V5.36364H88.846V7.61861H89.0324C89.1981 7.28717 89.4319 6.93501 89.7338 6.56214C90.0356 6.18336 90.444 5.86079 90.9589 5.59446C91.4738 5.32221 92.1308 5.18608 92.9298 5.18608C93.9833 5.18608 94.9332 5.45537 95.7796 5.99396C96.6318 6.52663 97.3066 7.31676 97.8037 8.36435C98.3068 9.40601 98.5583 10.6844 98.5583 12.1996C98.5583 13.697 98.3127 14.9695 97.8215 16.017C97.3302 17.0646 96.6614 17.8636 95.8151 18.4141C94.9687 18.9645 94.0099 19.2397 92.9387 19.2397C92.1574 19.2397 91.5093 19.1095 90.9944 18.8491C90.4795 18.5887 90.0652 18.275 89.7515 17.908C89.4437 17.5352 89.204 17.183 89.0324 16.8516H88.8992V24.1136H85.6855ZM88.8371 12.1818C88.8371 13.0637 88.9614 13.8361 89.21 14.4989C89.4645 15.1618 89.8285 15.6797 90.3019 16.0526C90.7813 16.4195 91.3614 16.603 92.042 16.603C92.7522 16.603 93.347 16.4136 93.8264 16.0348C94.3058 15.6501 94.6669 15.1263 94.9095 14.4634C95.1581 13.7946 95.2824 13.0341 95.2824 12.1818C95.2824 11.3355 95.1611 10.5838 94.9184 9.92685C94.6758 9.26989 94.3147 8.75497 93.8353 8.3821C93.3559 8.00923 92.7581 7.8228 92.042 7.8228C91.3554 7.8228 90.7725 8.00331 90.2931 8.36435C89.8137 8.72538 89.4497 9.23142 89.2011 9.88246C88.9584 10.5335 88.8371 11.3 88.8371 12.1818ZM107.347 19.2663C105.98 19.2663 104.799 18.9822 103.805 18.4141C102.817 17.84 102.056 17.0291 101.524 15.9815C100.991 14.928 100.725 13.6881 100.725 12.2617C100.725 10.859 100.991 9.62796 101.524 8.56854C102.062 7.5032 102.814 6.6746 103.778 6.08274C104.743 5.48497 105.877 5.18608 107.179 5.18608C108.019 5.18608 108.812 5.32221 109.558 5.59446C110.31 5.86079 110.973 6.27509 111.547 6.83736C112.127 7.39962 112.582 8.11577 112.914 8.9858C113.245 9.84991 113.411 10.8797 113.411 12.0753V13.0607H102.234V10.8945H110.33C110.324 10.279 110.191 9.73153 109.931 9.25213C109.67 8.76681 109.306 8.38506 108.839 8.10689C108.377 7.82872 107.839 7.68963 107.223 7.68963C106.566 7.68963 105.989 7.84943 105.492 8.16903C104.995 8.48272 104.607 8.89702 104.329 9.41193C104.057 9.92093 103.918 10.4802 103.912 11.0898V12.9808C103.912 13.7739 104.057 14.4545 104.347 15.0227C104.637 15.585 105.042 16.017 105.563 16.3189C106.084 16.6148 106.693 16.7628 107.392 16.7628C107.859 16.7628 108.283 16.6977 108.661 16.5675C109.04 16.4313 109.369 16.2331 109.647 15.9727C109.925 15.7122 110.135 15.3897 110.277 15.005L113.278 15.3423C113.088 16.1354 112.727 16.8279 112.195 17.4197C111.668 18.0057 110.993 18.4614 110.171 18.7869C109.348 19.1065 108.407 19.2663 107.347 19.2663ZM116.13 19V5.36364H119.246V7.63636H119.388C119.637 6.8492 120.063 6.24254 120.666 5.81641C121.276 5.38435 121.971 5.16832 122.753 5.16832C122.93 5.16832 123.128 5.1772 123.347 5.19496C123.572 5.20679 123.759 5.22751 123.907 5.2571V8.21342C123.771 8.16607 123.555 8.12464 123.259 8.08913C122.969 8.0477 122.688 8.02699 122.415 8.02699C121.829 8.02699 121.303 8.15424 120.835 8.40874C120.373 8.65731 120.009 9.00355 119.743 9.44744C119.477 9.89134 119.344 10.4033 119.344 10.9833V19H116.13ZM133.584 5.36364V7.84943H125.744V5.36364H133.584ZM127.68 2.09659H130.894V14.8984C130.894 15.3305 130.959 15.6619 131.089 15.8928C131.225 16.1177 131.403 16.2715 131.622 16.3544C131.841 16.4373 132.083 16.4787 132.35 16.4787C132.551 16.4787 132.734 16.4639 132.9 16.4343C133.072 16.4047 133.202 16.3781 133.291 16.3544L133.832 18.8668C133.661 18.926 133.415 18.9911 133.095 19.0621C132.782 19.1332 132.397 19.1746 131.941 19.1864C131.136 19.2101 130.411 19.0888 129.766 18.8224C129.121 18.5502 128.609 18.13 128.23 17.5618C127.857 16.9936 127.674 16.2834 127.68 15.4311V2.09659ZM147.903 11.7273H148.954L151.426 17.7642H151.511L153.983 11.7273H155.034V19H154.21V13.4744H154.139L151.866 19H151.071L148.798 13.4744H148.727V19H147.903V11.7273ZM158.902 19.1136C158.409 19.1136 157.977 18.9964 157.606 18.7621C157.236 18.5277 156.948 18.1998 156.739 17.7784C156.533 17.357 156.43 16.8646 156.43 16.3011C156.43 15.733 156.533 15.237 156.739 14.8132C156.948 14.3894 157.236 14.0604 157.606 13.826C157.977 13.5916 158.409 13.4744 158.902 13.4744C159.394 13.4744 159.825 13.5916 160.195 13.826C160.566 14.0604 160.855 14.3894 161.061 14.8132C161.269 15.237 161.373 15.733 161.373 16.3011C161.373 16.8646 161.269 17.357 161.061 17.7784C160.855 18.1998 160.566 18.5277 160.195 18.7621C159.825 18.9964 159.394 19.1136 158.902 19.1136ZM158.902 18.3608C159.276 18.3608 159.584 18.2649 159.825 18.0732C160.067 17.8814 160.245 17.6293 160.361 17.3168C160.477 17.0043 160.535 16.6657 160.535 16.3011C160.535 15.9366 160.477 15.5968 160.361 15.282C160.245 14.9671 160.067 14.7126 159.825 14.5185C159.584 14.3243 159.276 14.2273 158.902 14.2273C158.528 14.2273 158.22 14.3243 157.979 14.5185C157.737 14.7126 157.558 14.9671 157.442 15.282C157.326 15.5968 157.268 15.9366 157.268 16.3011C157.268 16.6657 157.326 17.0043 157.442 17.3168C157.558 17.6293 157.737 17.8814 157.979 18.0732C158.22 18.2649 158.528 18.3608 158.902 18.3608ZM163.491 15.7188V19H162.653V13.5455H163.462V14.3977H163.533C163.661 14.1207 163.855 13.8982 164.116 13.7301C164.376 13.5597 164.712 13.4744 165.124 13.4744C165.494 13.4744 165.817 13.5502 166.094 13.7017C166.371 13.8509 166.586 14.0781 166.74 14.3835C166.894 14.6866 166.971 15.0701 166.971 15.5341V19H166.133V15.5909C166.133 15.1624 166.022 14.8286 165.799 14.5895C165.577 14.348 165.271 14.2273 164.883 14.2273C164.615 14.2273 164.376 14.2853 164.166 14.4013C163.957 14.5173 163.793 14.6866 163.672 14.9091C163.551 15.1316 163.491 15.4015 163.491 15.7188ZM168.502 19V13.5455H169.34V19H168.502ZM168.929 12.6364C168.765 12.6364 168.624 12.5807 168.506 12.4695C168.39 12.3582 168.332 12.2244 168.332 12.0682C168.332 11.9119 168.39 11.7782 168.506 11.6669C168.624 11.5556 168.765 11.5 168.929 11.5C169.092 11.5 169.232 11.5556 169.348 11.6669C169.466 11.7782 169.525 11.9119 169.525 12.0682C169.525 12.2244 169.466 12.3582 169.348 12.4695C169.232 12.5807 169.092 12.6364 168.929 12.6364ZM173.248 13.5455V14.2557H170.421V13.5455H173.248ZM171.245 12.2386H172.083V17.4375C172.083 17.6742 172.117 17.8518 172.186 17.9702C172.257 18.0862 172.347 18.1643 172.456 18.2045C172.567 18.2424 172.684 18.2614 172.807 18.2614C172.9 18.2614 172.975 18.2566 173.035 18.2472C173.094 18.2353 173.141 18.2259 173.177 18.2188L173.347 18.9716C173.29 18.9929 173.211 19.0142 173.109 19.0355C173.007 19.0592 172.878 19.071 172.722 19.071C172.485 19.071 172.253 19.0201 172.026 18.9183C171.801 18.8165 171.614 18.6615 171.465 18.4531C171.318 18.2448 171.245 17.982 171.245 17.6648V12.2386ZM176.666 19.1136C176.173 19.1136 175.741 18.9964 175.369 18.7621C175 18.5277 174.711 18.1998 174.503 17.7784C174.297 17.357 174.194 16.8646 174.194 16.3011C174.194 15.733 174.297 15.237 174.503 14.8132C174.711 14.3894 175 14.0604 175.369 13.826C175.741 13.5916 176.173 13.4744 176.666 13.4744C177.158 13.4744 177.589 13.5916 177.958 13.826C178.33 14.0604 178.619 14.3894 178.825 14.8132C179.033 15.237 179.137 15.733 179.137 16.3011C179.137 16.8646 179.033 17.357 178.825 17.7784C178.619 18.1998 178.33 18.5277 177.958 18.7621C177.589 18.9964 177.158 19.1136 176.666 19.1136ZM176.666 18.3608C177.04 18.3608 177.347 18.2649 177.589 18.0732C177.83 17.8814 178.009 17.6293 178.125 17.3168C178.241 17.0043 178.299 16.6657 178.299 16.3011C178.299 15.9366 178.241 15.5968 178.125 15.282C178.009 14.9671 177.83 14.7126 177.589 14.5185C177.347 14.3243 177.04 14.2273 176.666 14.2273C176.292 14.2273 175.984 14.3243 175.742 14.5185C175.501 14.7126 175.322 14.9671 175.206 15.282C175.09 15.5968 175.032 15.9366 175.032 16.3011C175.032 16.6657 175.09 17.0043 175.206 17.3168C175.322 17.6293 175.501 17.8814 175.742 18.0732C175.984 18.2649 176.292 18.3608 176.666 18.3608ZM180.416 19V13.5455H181.226V14.3693H181.283C181.382 14.0994 181.562 13.8804 181.823 13.7124C182.083 13.5443 182.377 13.4602 182.703 13.4602C182.765 13.4602 182.842 13.4614 182.934 13.4638C183.027 13.4661 183.096 13.4697 183.144 13.4744V14.3267C183.115 14.3196 183.05 14.3089 182.948 14.2947C182.849 14.2782 182.744 14.2699 182.632 14.2699C182.367 14.2699 182.13 14.3255 181.922 14.4368C181.716 14.5457 181.553 14.6972 181.432 14.8913C181.314 15.0831 181.255 15.3021 181.255 15.5483V19H180.416Z" fill="black"/>
<path d="M73.1122 0.818181L76.0241 7.47656H76.1662L81.2798 0.818181H85.1239L78.0305 9.90909L82.1942 19H78.4389L75.4915 12.386H75.3494L70.2003 19H66.3384L73.6094 9.90909L69.4279 0.818181H73.1122Z" fill="#97E382"/>
</svg>
